# Blender v2.80 (sub 75) OBJ File: 'Abtu.blend'
# www.blender.org
mtllib abtu.mtl
o Head
v 0.237757 0.356645 1.538212
v 0.237757 0.716318 1.538212
v 0.237757 0.356645 0.678365
v 0.237757 0.716318 0.678365
v 0.237757 0.356645 1.108289
v 0.237757 0.716318 1.108289
v 0.237757 0.134865 0.678365
v 0.237757 0.134865 1.108289
v -0.237757 0.356645 1.538212
v -0.237757 0.716318 1.538212
v -0.237757 0.356645 0.678365
v -0.237757 0.716318 0.678365
v -0.237757 0.356645 1.108289
v -0.237757 0.716318 1.108289
v -0.237757 0.134865 0.678365
v -0.237757 0.134865 1.108289
v 0.000000 0.356645 0.678365
v 0.000000 0.716318 0.678365
v 0.000000 0.356645 1.538212
v 0.000000 0.716318 1.538212
v 0.000000 0.716318 1.108289
v 0.000000 0.356645 1.108289
v 0.000000 0.134865 0.678365
v 0.000000 0.134865 1.108289
vt 0.375000 0.656250
vt 0.562500 0.656250
vt 0.562500 0.750000
vt 0.375000 0.750000
vt 0.375000 0.843750
vt 0.375000 1.000000
vt 0.187500 1.000000
vt 0.187500 0.843750
vt 0.375000 0.750000
vt 0.375000 0.656250
vt 0.562500 0.656250
vt 0.562500 0.750000
vt 0.562500 0.843750
vt 0.562500 1.000000
vt 0.562500 0.656250
vt 0.562500 0.750000
vt 0.375000 0.750000
vt 0.375000 0.656250
vt 0.312500 0.562500
vt 0.312500 0.656250
vt 0.187500 0.656250
vt 0.187500 0.562500
vt 0.187500 0.562500
vt 0.312500 0.562500
vt 0.312500 0.656250
vt 0.187500 0.656250
vt 0.562500 0.656250
vt 0.562500 0.750000
vt 0.375000 0.750000
vt 0.375000 0.656250
vt 0.187500 0.750000
vt 0.187500 0.656250
vt 0.375000 0.843750
vt 0.218750 0.843750
vt 0.218750 0.750000
vt 0.375000 0.750000
vt 0.375000 0.750000
vt 0.562500 0.750000
vt 0.375000 0.843750
vt 0.187500 0.843750
vt 0.187500 1.000000
vt 0.375000 1.000000
vt 0.562500 0.656250
vt 0.375000 0.656250
vt 0.562500 0.843750
vt 0.562500 1.000000
vt 0.375000 0.750000
vt 0.562500 0.750000
vt 0.187500 0.656250
vt 0.312500 0.656250
vt 0.187500 0.562500
vt 0.187500 0.656250
vt 0.562500 0.656250
vt 0.375000 0.656250
vt 0.187500 0.656250
vt 0.375000 0.843750
vt 0.218750 0.843750
vn 0.0000 0.0000 -1.0000
vn 1.0000 0.0000 0.0000
vn 0.0000 -1.0000 0.0000
vn 0.0000 0.0000 1.0000
vn 0.0000 1.0000 0.0000
vn -1.0000 0.0000 0.0000
usemtl Material
s off
f 17/1/1 18/2/1 4/3/1 3/4/1
f 5/5/2 6/6/2 2/7/2 1/8/2
f 22/9/3 5/10/3 1/11/3 19/12/3
f 3/13/2 4/14/2 6/6/2 5/5/2
f 23/15/3 7/16/3 8/17/3 24/18/3
f 17/19/1 3/20/1 7/21/1 23/22/1
f 3/13/2 5/5/2 8/17/2 7/16/2
f 5/23/4 22/24/4 24/25/4 8/26/4
f 4/27/5 18/28/5 21/29/5 6/30/5
f 6/30/5 21/29/5 20/31/5 2/32/5
f 1/33/4 2/34/4 20/35/4 19/36/4
f 17/1/1 11/37/1 12/38/1 18/2/1
f 13/39/6 9/40/6 10/41/6 14/42/6
f 22/9/3 19/12/3 9/43/3 13/44/3
f 11/45/6 13/39/6 14/42/6 12/46/6
f 23/15/3 24/18/3 16/47/3 15/48/3
f 17/19/1 23/22/1 15/49/1 11/50/1
f 11/45/6 15/48/6 16/47/6 13/39/6
f 13/51/4 16/52/4 24/25/4 22/24/4
f 12/53/5 14/54/5 21/29/5 18/28/5
f 14/54/5 10/55/5 20/31/5 21/29/5
f 9/56/4 19/36/4 20/35/4 10/57/4
o Mouth
v 0.313789 0.106582 1.633053
v 0.313789 0.362243 1.633053
v 0.313789 0.106582 0.837724
v 0.313789 0.362243 0.837724
v 0.313789 0.491895 1.632996
v 0.313789 0.363101 1.632996
v 0.313789 0.491895 0.839943
v 0.313789 0.363101 0.839943
v 0.000000 0.363101 1.631503
v 0.000000 0.491895 1.631503
v 0.312461 0.491895 1.631503
v 0.312461 0.363101 1.631503
v -0.313789 0.106582 1.633053
v -0.313789 0.362243 1.633053
v -0.313789 0.106582 0.837724
v -0.313789 0.362243 0.837724
v -0.313789 0.491895 1.632996
v -0.313789 0.363101 1.632996
v -0.313789 0.491895 0.839943
v -0.313789 0.363101 0.839943
v 0.000000 0.363101 1.631503
v 0.000000 0.491895 1.631503
v -0.312461 0.491895 1.631503
v -0.312461 0.363101 1.631503
v 0.000000 0.106582 0.837724
v 0.000000 0.362243 0.837724
v 0.000000 0.106582 1.633053
v 0.000000 0.362243 1.633053
vt -0.000000 0.843750
vt 0.125000 0.843750
vt 0.125000 1.000000
vt -0.000000 1.000000
vt 0.156250 0.437500
vt -0.000000 0.437500
vt -0.000000 0.843750
vt 0.156250 0.843750
vt -0.000000 0.437500
vt -0.000000 0.843750
vt 0.687500 0.968750
vt 0.625000 0.968750
vt 0.625000 0.562500
vt 0.687500 0.562500
vt 0.687500 0.718750
vt 0.625000 0.718750
vt 0.625000 0.562500
vt 0.687500 0.562500
vt 0.593750 0.375000
vt 0.593750 0.218750
vt 1.000000 0.218750
vt 1.000000 0.375000
vt -0.000000 0.843750
vt 0.125000 0.843750
vt 0.125000 1.000000
vt -0.000000 1.000000
vt -0.000000 1.000000
vt 0.125000 1.000000
vt 0.156250 0.437500
vt 0.156250 0.843750
vt -0.000000 0.843750
vt -0.000000 0.437500
vt 0.687500 0.968750
vt 0.687500 0.562500
vt 0.625000 0.562500
vt 0.625000 0.968750
vt 0.687500 0.718750
vt 0.687500 0.562500
vt 0.625000 0.562500
vt 0.625000 0.718750
vt 0.593750 0.375000
vt 1.000000 0.375000
vt -0.000000 0.843750
vt 0.125000 0.843750
vn 0.0000 0.0000 -1.0000
vn 1.0000 0.0000 0.0000
vn 0.0000 -1.0000 0.0000
vn 0.0000 0.0000 1.0000
vn 0.0000 1.0000 0.0000
vn -1.0000 0.0000 0.0000
usemtl Material
s off
f 49/58/7 50/59/7 28/60/7 27/61/7
f 27/62/8 28/63/8 26/64/8 25/65/8
f 49/66/9 27/62/9 25/65/9 51/67/9
f 29/68/8 30/69/8 32/70/8 31/71/8
f 34/72/10 33/73/10 36/74/10 35/75/10
f 28/76/11 50/77/11 52/78/11 26/79/11
f 25/80/10 26/81/10 52/82/10 51/83/10
f 49/58/7 39/84/7 40/85/7 50/59/7
f 39/86/12 37/87/12 38/88/12 40/89/12
f 49/66/9 51/67/9 37/87/9 39/86/9
f 41/90/12 43/91/12 44/92/12 42/93/12
f 46/94/10 47/95/10 48/96/10 45/97/10
f 40/98/11 38/99/11 52/78/11 50/77/11
f 37/100/10 51/83/10 52/82/10 38/101/10
o Body
v 0.289340 0.059926 0.716036
v 0.289340 0.873246 0.716036
v 0.289340 0.059926 -0.488014
v 0.289340 0.873246 -0.488014
v 0.197833 0.191586 -0.320815
v 0.197833 0.741586 -0.320815
v 0.197833 0.191586 -0.998830
v 0.197833 0.741586 -0.998830
v 0.070471 0.320123 -0.863761
v 0.070471 0.617523 -0.593548
v 0.070471 0.890198 -1.491193
v 0.070471 1.187597 -1.220980
v 0.100134 0.311522 -0.695222
v 0.100134 0.690148 -0.829773
v 0.100134 0.027656 -1.494018
v 0.100134 0.406282 -1.628569
v 0.000265 0.321157 0.922772
v 0.000265 1.351452 0.922772
v 0.000265 0.321157 -1.249546
v 0.000265 1.351452 -1.249546
v -0.289340 0.059926 0.716036
v -0.289340 0.873246 0.716036
v -0.289340 0.059926 -0.488014
v -0.289340 0.873246 -0.488014
v -0.197833 0.191586 -0.320815
v -0.197833 0.741586 -0.320815
v -0.197833 0.191586 -0.998830
v -0.197833 0.741586 -0.998830
v -0.070471 0.320123 -0.863761
v -0.070471 0.617523 -0.593548
v -0.070471 0.890198 -1.491193
v -0.070471 1.187597 -1.220980
v -0.100134 0.311522 -0.695222
v -0.100134 0.690148 -0.829773
v -0.100134 0.027656 -1.494018
v -0.100134 0.406282 -1.628569
v 0.000000 0.059926 -0.488014
v 0.000000 0.873246 -0.488014
v 0.000000 0.059926 0.716036
v 0.000000 0.873246 0.716036
v 0.000000 0.890198 -1.491193
v 0.000000 1.187597 -1.220980
v 0.000000 0.320123 -0.863761
v 0.000000 0.617523 -0.593548
v 0.000000 0.027656 -1.494018
v 0.000000 0.406282 -1.628569
v 0.000000 0.311522 -0.695222
v 0.000000 0.690148 -0.829773
v 0.000000 0.191586 -0.998830
v 0.000000 0.741586 -0.998830
v 0.000000 0.191586 -0.320815
v 0.000000 0.741586 -0.320815
vt 0.562500 0.031250
vt 0.875000 0.031250
vt 0.875000 0.156250
vt 0.562500 0.156250
vt 0.281250 0.406250
vt 0.000000 0.406250
vt 0.000000 0.000000
vt 0.281250 0.000000
vt 0.406250 0.343750
vt 0.281250 0.343750
vt 0.406250 0.000000
vt 0.375000 0.375000
vt 0.375000 0.531250
vt 0.312500 0.531250
vt 0.312500 0.375000
vt 0.562500 0.656250
vt 0.312500 0.656250
vt 0.312500 0.375000
vt 0.562500 0.375000
vt 0.843750 0.187500
vt 0.781250 0.187500
vt 0.781250 -0.000000
vt 0.843750 -0.000000
vt 0.625000 0.562500
vt 0.625000 0.437500
vt 0.656250 0.437500
vt 0.656250 0.562500
vt 0.281250 0.375000
vt 0.156250 0.375000
vt 0.156250 0.093750
vt 0.281250 0.093750
vt 0.906250 -0.000000
vt 0.937500 -0.000000
vt 0.937500 0.218750
vt 0.906250 0.218750
vt 0.500000 0.156250
vt 0.656250 0.156250
vt 0.656250 0.218750
vt 0.500000 0.218750
vt 0.281250 0.375000
vt 0.156250 0.375000
vt 0.156250 0.093750
vt 0.281250 0.093750
vt 0.031250 0.375000
vt -0.000000 0.375000
vt -0.000000 0.093750
vt 0.031250 0.093750
vt 1.000000 1.000000
vt 0.687500 1.000000
vt 0.687500 0.375000
vt 1.000000 0.375000
vt 0.406250 0.000000
vt 0.531250 0.000000
vt 0.531250 0.343750
vt 0.406250 0.343750
vt 0.562500 0.031250
vt 0.875000 0.031250
vt 0.875000 0.156250
vt 0.562500 0.156250
vt 0.031250 0.093750
vt 0.062500 0.093750
vt 0.062500 0.375000
vt 0.031250 0.375000
vt 0.593750 0.562500
vt 0.593750 0.437500
vt 0.625000 0.437500
vt 0.625000 0.562500
vt 0.875000 0.156250
vt 0.875000 0.218750
vt 0.562500 0.562500
vt 0.562500 0.437500
vt 0.593750 0.437500
vt 0.593750 0.562500
vt 0.125000 0.250000
vt 0.062500 0.250000
vt 0.062500 0.062500
vt 0.125000 0.062500
vt 0.062500 0.218750
vt 0.062500 0.062500
vt 0.156250 0.062500
vt 0.156250 0.218750
vt 0.562500 0.156250
vt 0.875000 0.156250
vt 0.281250 0.406250
vt 0.281250 0.000000
vt 0.000000 0.000000
vt 0.000000 0.406250
vt 0.281250 0.343750
vt 0.312500 0.375000
vt 0.312500 0.531250
vt 0.562500 0.656250
vt 0.562500 0.375000
vt 0.312500 0.375000
vt 0.312500 0.656250
vt 0.781250 -0.000000
vt 0.781250 0.187500
vt 0.656250 0.562500
vt 0.656250 0.437500
vt 0.281250 0.375000
vt 0.281250 0.093750
vt 0.156250 0.093750
vt 0.156250 0.375000
vt 0.937500 0.218750
vt 0.937500 -0.000000
vt 0.500000 0.218750
vt 0.656250 0.218750
vt 0.281250 0.375000
vt 0.281250 0.093750
vt 0.156250 0.093750
vt 0.156250 0.375000
vt -0.000000 0.093750
vt -0.000000 0.375000
vt 0.406250 0.000000
vt 0.406250 0.343750
vt 0.562500 0.031250
vt 0.875000 0.031250
vt 0.031250 0.093750
vt 0.031250 0.375000
vt 0.593750 0.562500
vt 0.593750 0.437500
vt 0.875000 0.218750
vt 0.562500 0.562500
vt 0.562500 0.437500
vt 0.125000 0.250000
vt 0.125000 0.062500
vt 0.062500 0.218750
vt 0.062500 0.062500
vn 0.0000 0.0000 -1.0000
vn 1.0000 0.0000 0.0000
vn 0.0000 -1.0000 0.0000
vn 0.0000 0.6725 -0.7401
vn 0.0000 -0.7401 -0.6725
vn 0.0000 -0.3349 -0.9423
vn 0.0000 -0.9423 0.3349
vn -1.0000 0.0000 0.0000
vn 0.0000 1.0000 0.0000
vn 0.0000 0.0000 1.0000
vn 0.0000 0.7401 0.6725
vn 0.0000 -0.6725 0.7401
vn 0.0000 0.9423 -0.3349
vn 0.0000 0.3349 0.9423
usemtl Material
s off
f 89/102/13 90/103/13 56/104/13 55/105/13
f 55/106/14 56/107/14 54/108/14 53/109/14
f 89/110/15 55/111/15 53/109/15 91/112/15
f 101/113/13 102/114/13 60/115/13 59/116/13
f 59/117/14 60/118/14 58/119/14 57/120/14
f 101/121/15 59/122/15 57/123/15 103/124/15
f 93/125/16 94/126/16 64/127/16 63/128/16
f 63/129/14 64/130/14 62/131/14 61/132/14
f 93/133/17 63/134/17 61/135/17 95/136/17
f 97/137/18 98/138/18 68/139/18 67/140/18
f 67/141/14 68/142/14 66/143/14 65/144/14
f 97/145/19 67/146/19 65/147/19 99/148/19
f 69/149/20 70/150/20 72/151/20 71/152/20
f 56/153/21 90/154/21 92/155/21 54/156/21
f 53/157/22 54/158/22 92/159/22 91/160/22
f 64/161/23 94/162/23 96/163/23 62/164/23
f 61/165/24 62/166/24 96/167/24 95/168/24
f 68/139/25 98/138/25 100/169/25 66/170/25
f 65/171/26 66/172/26 100/173/26 99/174/26
f 60/175/21 102/176/21 104/177/21 58/178/21
f 57/179/22 58/180/22 104/181/22 103/182/22
f 89/102/13 75/183/13 76/184/13 90/103/13
f 75/185/20 73/186/20 74/187/20 76/188/20
f 89/110/15 91/112/15 73/186/15 75/189/15
f 101/113/13 79/190/13 80/191/13 102/114/13
f 79/192/20 77/193/20 78/194/20 80/195/20
f 101/121/15 103/124/15 77/196/15 79/197/15
f 93/125/16 83/198/16 84/199/16 94/126/16
f 83/200/20 81/201/20 82/202/20 84/203/20
f 93/133/17 95/136/17 81/204/17 83/205/17
f 97/137/18 87/206/18 88/207/18 98/138/18
f 87/208/20 85/209/20 86/210/20 88/211/20
f 97/145/19 99/148/19 85/212/19 87/213/19
f 76/214/21 74/215/21 92/155/21 90/154/21
f 73/216/22 91/160/22 92/159/22 74/217/22
f 84/218/23 82/219/23 96/163/23 94/162/23
f 81/220/24 95/168/24 96/167/24 82/221/24
f 88/207/25 86/222/25 100/169/25 98/138/25
f 85/223/26 99/174/26 100/173/26 86/224/26
f 80/225/21 78/226/21 104/177/21 102/176/21
f 77/227/22 103/182/22 104/181/22 78/228/22
