# Blender v2.90 (sub 0) OBJ File: ''
# www.blender.org
mtllib boomerang.mtl
o Mesh_0
v 0.255478 0.227788 0.001047
v 0.275331 0.239282 0.009406
v 0.283690 0.233012 0.009406
v 0.255478 0.227788 0.017766
v 0.275331 0.239282 0.009406
v 0.249208 0.243461 0.009406
v 0.255478 0.227788 0.001047
v 0.249208 0.243461 0.009406
v 0.275331 0.239282 0.009406
v -0.000522 -0.227788 0.017766
v -0.028735 -0.247641 0.009406
v -0.008882 -0.256000 0.009406
v -0.000522 -0.227788 0.017766
v -0.016196 -0.198531 0.009406
v -0.028735 -0.247641 0.009406
v -0.000522 -0.227788 0.017766
v 0.000522 -0.251820 0.009406
v 0.017241 -0.230923 0.009406
v -0.000522 -0.227788 0.017766
v -0.008882 -0.256000 0.009406
v 0.000522 -0.251820 0.009406
v -0.266971 0.220474 0.017766
v -0.269061 0.256000 0.009406
v -0.285780 0.242416 0.009406
v -0.266971 0.220474 0.017766
v -0.232490 0.220474 0.009406
v -0.269061 0.256000 0.009406
v -0.266971 0.220474 0.017766
v -0.287869 0.231967 0.009406
v -0.277420 0.206890 0.009406
v -0.266971 0.220474 0.017766
v -0.285780 0.242416 0.009406
v -0.287869 0.231967 0.009406
v 0.255478 0.227788 0.017766
v 0.287869 0.211069 0.009406
v 0.283690 0.233012 0.009406
v 0.255478 0.227788 0.017766
v 0.238759 0.197486 0.009406
v 0.287869 0.211069 0.009406
v 0.255478 0.227788 0.017766
v 0.283690 0.233012 0.009406
v 0.275331 0.239282 0.009406
v -0.000522 -0.227788 0.001047
v -0.028735 -0.247641 0.009406
v -0.016196 -0.198531 0.009406
v -0.000522 -0.227788 0.001047
v -0.008882 -0.256000 0.009406
v -0.028735 -0.247641 0.009406
v -0.000522 -0.227788 0.001047
v 0.000522 -0.251820 0.009406
v -0.008882 -0.256000 0.009406
v -0.000522 -0.227788 0.001047
v 0.017241 -0.230923 0.009406
v 0.000522 -0.251820 0.009406
v -0.266971 0.220474 0.001047
v -0.269061 0.256000 0.009406
v -0.232490 0.220474 0.009406
v -0.266971 0.220474 0.001047
v -0.285780 0.242416 0.009406
v -0.269061 0.256000 0.009406
v -0.266971 0.220474 0.001047
v -0.287869 0.231967 0.009406
v -0.285780 0.242416 0.009406
v -0.266971 0.220474 0.001047
v -0.277420 0.206890 0.009406
v -0.287869 0.231967 0.009406
v 0.255478 0.227788 0.001047
v 0.287869 0.211069 0.009406
v 0.238759 0.197486 0.009406
v 0.255478 0.227788 0.001047
v 0.283690 0.233012 0.009406
v 0.287869 0.211069 0.009406
v -0.003657 0.074188 0.035529
v -0.059037 0.019853 0.009406
v -0.028735 -0.036571 0.009406
v 0.053812 -0.007314 0.009406
v 0.070531 0.052245 0.009406
v -0.003657 0.074188 0.035529
v -0.003657 0.074188 0.035529
v -0.022465 0.148376 0.009406
v -0.086204 0.150465 0.009406
v -0.102922 0.063739 0.009406
v -0.059037 0.019853 0.009406
v -0.003657 0.074188 0.035529
v -0.003657 0.074188 0.035529
v 0.070531 0.052245 0.009406
v 0.105012 0.106580 0.009406
v -0.000522 -0.227788 0.017766
v 0.018286 -0.114939 0.022990
v -0.015151 -0.115984 0.009406
v 0.076800 -0.103445 0.009406
v 0.018286 -0.114939 0.022990
v -0.000522 -0.227788 0.017766
v -0.015151 -0.115984 0.009406
v 0.018286 -0.114939 0.022990
v 0.013061 -0.021943 0.022990
v 0.076800 -0.103445 0.009406
v 0.053812 -0.007314 0.009406
v 0.013061 -0.021943 0.022990
v -0.266971 0.220474 0.017766
v -0.177110 0.147331 0.022990
v -0.162482 0.177633 0.009406
v -0.196963 0.092996 0.009406
v -0.177110 0.147331 0.022990
v -0.266971 0.220474 0.017766
v -0.162482 0.177633 0.009406
v -0.177110 0.147331 0.022990
v -0.094563 0.106580 0.022990
v -0.196963 0.092996 0.009406
v -0.102922 0.063739 0.009406
v -0.094563 0.106580 0.022990
v 0.255478 0.227788 0.017766
v 0.147853 0.185992 0.022990
v 0.166661 0.157780 0.009406
v 0.109192 0.230923 0.009406
v 0.147853 0.185992 0.022990
v 0.255478 0.227788 0.017766
v 0.166661 0.157780 0.009406
v 0.147853 0.185992 0.022990
v 0.070531 0.135837 0.022990
v 0.109192 0.230923 0.009406
v 0.037094 0.164049 0.009406
v 0.070531 0.135837 0.022990
v 0.037094 0.164049 0.009406
v -0.022465 0.148376 0.009406
v -0.003657 0.074188 0.035529
v -0.028735 -0.036571 0.009406
v -0.059037 0.019853 0.009406
v -0.003657 0.074188 -0.016716
v -0.003657 0.074188 -0.016716
v 0.070531 0.052245 0.009406
v 0.053812 -0.007314 0.009406
v -0.086204 0.150465 0.009406
v -0.022465 0.148376 0.009406
v -0.003657 0.074188 -0.016716
v -0.003657 0.074188 -0.016716
v -0.059037 0.019853 0.009406
v -0.102922 0.063739 0.009406
v 0.105012 0.106580 0.009406
v 0.070531 0.052245 0.009406
v -0.003657 0.074188 -0.016716
v -0.015151 -0.115984 0.009406
v 0.018286 -0.114939 -0.004177
v -0.000522 -0.227788 0.001047
v -0.000522 -0.227788 0.001047
v 0.018286 -0.114939 -0.004177
v 0.076800 -0.103445 0.009406
v 0.013061 -0.021943 -0.004177
v 0.018286 -0.114939 -0.004177
v -0.015151 -0.115984 0.009406
v 0.013061 -0.021943 -0.004177
v 0.053812 -0.007314 0.009406
v 0.076800 -0.103445 0.009406
v -0.162482 0.177633 0.009406
v -0.177110 0.147331 -0.004177
v -0.266971 0.220474 0.001047
v -0.266971 0.220474 0.001047
v -0.177110 0.147331 -0.004177
v -0.196963 0.092996 0.009406
v -0.094563 0.106580 -0.004177
v -0.177110 0.147331 -0.004177
v -0.162482 0.177633 0.009406
v -0.094563 0.106580 -0.004177
v -0.102922 0.063739 0.009406
v -0.196963 0.092996 0.009406
v 0.255478 0.227788 0.001047
v 0.238759 0.197486 0.009406
v 0.166661 0.157780 0.009406
v 0.255478 0.227788 0.001047
v 0.147853 0.185992 -0.004177
v 0.109192 0.230923 0.009406
v 0.070531 0.135837 -0.004177
v 0.147853 0.185992 -0.004177
v 0.166661 0.157780 0.009406
v 0.070531 0.135837 -0.004177
v 0.037094 0.164049 0.009406
v 0.109192 0.230923 0.009406
v -0.003657 0.074188 -0.016716
v -0.022465 0.148376 0.009406
v 0.037094 0.164049 0.009406
v 0.013061 -0.021943 0.022990
v 0.013061 -0.021943 0.022990
v -0.094563 0.106580 0.022990
v -0.094563 0.106580 0.022990
v 0.070531 0.135837 0.022990
v -0.016196 -0.198531 0.009406
v 0.017241 -0.230923 0.009406
v -0.028735 -0.036571 0.009406
v 0.018286 -0.114939 0.022990
v -0.232490 0.220474 0.009406
v -0.277420 0.206890 0.009406
v -0.086204 0.150465 0.009406
v -0.177110 0.147331 0.022990
v 0.238759 0.197486 0.009406
v 0.249208 0.243461 0.009406
v 0.105012 0.106580 0.009406
v 0.147853 0.185992 0.022990
v 0.070531 0.135837 0.022990
v 0.013061 -0.021943 -0.004177
v 0.013061 -0.021943 -0.004177
v -0.094563 0.106580 -0.004177
v -0.094563 0.106580 -0.004177
v 0.070531 0.135837 -0.004177
v -0.016196 -0.198531 0.009406
v 0.017241 -0.230923 0.009406
v -0.028735 -0.036571 0.009406
v 0.018286 -0.114939 -0.004177
v -0.232490 0.220474 0.009406
v -0.277420 0.206890 0.009406
v -0.086204 0.150465 0.009406
v -0.177110 0.147331 -0.004177
v 0.147853 0.185992 -0.004177
v 0.249208 0.243461 0.009406
v 0.105012 0.106580 0.009406
v 0.147853 0.185992 -0.004177
v 0.070531 0.135837 -0.004177
vt 0.187500 0.682353
vt 0.125000 0.752941
vt 0.109375 0.705882
vt 0.187500 0.682353
vt 0.125000 0.752941
vt 0.226563 0.752941
vt 0.187500 0.682353
vt 0.226563 0.752941
vt 0.125000 0.752941
vt 0.187500 0.682353
vt 0.101563 0.623529
vt 0.109375 0.705882
vt 0.187500 0.682353
vt 0.226563 0.541176
vt 0.101563 0.623529
vt 0.187500 0.682353
vt 0.125000 0.752941
vt 0.226563 0.752941
vt 0.187500 0.682353
vt 0.109375 0.705882
vt 0.125000 0.752941
vt 0.187500 0.682353
vt 0.101563 0.623529
vt 0.109375 0.705882
vt 0.187500 0.682353
vt 0.226563 0.541176
vt 0.101563 0.623529
vt 0.187500 0.682353
vt 0.125000 0.752941
vt 0.226563 0.752941
vt 0.187500 0.682353
vt 0.109375 0.705882
vt 0.125000 0.752941
vt 0.187500 0.682353
vt 0.101563 0.623529
vt 0.109375 0.705882
vt 0.187500 0.682353
vt 0.226563 0.541176
vt 0.101563 0.623529
vt 0.187500 0.682353
vt 0.109375 0.705882
vt 0.125000 0.752941
vt 0.187500 0.682353
vt 0.101563 0.623529
vt 0.226563 0.541176
vt 0.187500 0.682353
vt 0.109375 0.705882
vt 0.101563 0.623529
vt 0.187500 0.682353
vt 0.125000 0.752941
vt 0.109375 0.705882
vt 0.187500 0.682353
vt 0.226563 0.752941
vt 0.125000 0.752941
vt 0.187500 0.682353
vt 0.101563 0.623529
vt 0.226563 0.541176
vt 0.187500 0.682353
vt 0.109375 0.705882
vt 0.101563 0.623529
vt 0.187500 0.682353
vt 0.125000 0.752941
vt 0.109375 0.705882
vt 0.187500 0.682353
vt 0.226563 0.752941
vt 0.125000 0.752941
vt 0.187500 0.682353
vt 0.101563 0.623529
vt 0.226563 0.541176
vt 0.187500 0.682353
vt 0.109375 0.705882
vt 0.101563 0.623529
vt 0.804688 0.152941
vt 0.632813 0.035294
vt 0.539063 0.270588
vt 0.695313 0.494118
vt 0.867188 0.400000
vt 0.804688 0.152941
vt 0.804688 0.152941
vt 0.632813 0.035294
vt 0.539063 0.270588
vt 0.695313 0.494118
vt 0.867188 0.400000
vt 0.804688 0.152941
vt 0.804688 0.152941
vt 0.632813 0.035294
vt 0.539063 0.270588
vt 0.187500 0.682353
vt 0.453125 0.529412
vt 0.375000 0.447059
vt 0.546875 0.682353
vt 0.453125 0.529412
vt 0.187500 0.682353
vt 0.375000 0.447059
vt 0.453125 0.529412
vt 0.625000 0.364706
vt 0.546875 0.682353
vt 0.695313 0.494118
vt 0.625000 0.364706
vt 0.187500 0.682353
vt 0.453125 0.529412
vt 0.375000 0.447059
vt 0.546875 0.682353
vt 0.453125 0.529412
vt 0.187500 0.682353
vt 0.375000 0.447059
vt 0.453125 0.529412
vt 0.625000 0.364706
vt 0.546875 0.682353
vt 0.695313 0.494118
vt 0.625000 0.364706
vt 0.187500 0.682353
vt 0.453125 0.529412
vt 0.375000 0.447059
vt 0.546875 0.682353
vt 0.453125 0.529412
vt 0.187500 0.682353
vt 0.375000 0.447059
vt 0.453125 0.529412
vt 0.625000 0.364706
vt 0.546875 0.682353
vt 0.695313 0.494118
vt 0.625000 0.364706
vt 0.695313 0.494118
vt 0.867188 0.400000
vt 0.804688 0.152941
vt 0.539063 0.270588
vt 0.632813 0.035294
vt 0.804688 0.152941
vt 0.804688 0.152941
vt 0.867188 0.400000
vt 0.695313 0.494118
vt 0.539063 0.270588
vt 0.632813 0.035294
vt 0.804688 0.152941
vt 0.804688 0.152941
vt 0.867188 0.400000
vt 0.695313 0.494118
vt 0.539063 0.270588
vt 0.632813 0.035294
vt 0.804688 0.152941
vt 0.375000 0.447059
vt 0.453125 0.529412
vt 0.187500 0.682353
vt 0.187500 0.682353
vt 0.453125 0.529412
vt 0.546875 0.682353
vt 0.625000 0.364706
vt 0.453125 0.529412
vt 0.375000 0.447059
vt 0.625000 0.364706
vt 0.695313 0.494118
vt 0.546875 0.682353
vt 0.375000 0.447059
vt 0.453125 0.529412
vt 0.187500 0.682353
vt 0.187500 0.682353
vt 0.453125 0.529412
vt 0.546875 0.682353
vt 0.625000 0.364706
vt 0.453125 0.529412
vt 0.375000 0.447059
vt 0.625000 0.364706
vt 0.695313 0.494118
vt 0.546875 0.682353
vt 0.187500 0.682353
vt 0.226563 0.541176
vt 0.375000 0.447059
vt 0.187500 0.682353
vt 0.453125 0.529412
vt 0.546875 0.682353
vt 0.625000 0.364706
vt 0.453125 0.529412
vt 0.375000 0.447059
vt 0.625000 0.364706
vt 0.695313 0.494118
vt 0.546875 0.682353
vt 0.804688 0.152941
vt 0.867188 0.400000
vt 0.695313 0.494118
vt 0.625000 0.364706
vt 0.625000 0.364706
vt 0.625000 0.364706
vt 0.625000 0.364706
vt 0.625000 0.364706
vt 0.226563 0.541176
vt 0.226563 0.752941
vt 0.539063 0.270588
vt 0.453125 0.529412
vt 0.226563 0.541176
vt 0.226563 0.752941
vt 0.539063 0.270588
vt 0.453125 0.529412
vt 0.226563 0.541176
vt 0.226563 0.752941
vt 0.539063 0.270588
vt 0.453125 0.529412
vt 0.625000 0.364706
vt 0.625000 0.364706
vt 0.625000 0.364706
vt 0.625000 0.364706
vt 0.625000 0.364706
vt 0.625000 0.364706
vt 0.226563 0.541176
vt 0.226563 0.752941
vt 0.539063 0.270588
vt 0.453125 0.529412
vt 0.226563 0.541176
vt 0.226563 0.752941
vt 0.539063 0.270588
vt 0.453125 0.529412
vt 0.453125 0.529412
vt 0.226563 0.752941
vt 0.539063 0.270588
vt 0.453125 0.529412
vt 0.625000 0.364706
vn 0.2209 0.2945 -0.9297
vn 0.0790 0.4936 0.8661
vn 0.0790 0.4935 -0.8661
vn -0.1067 -0.2533 0.9615
vn -0.3385 0.0864 0.9370
vn 0.3647 -0.2918 0.8842
vn 0.1421 -0.3197 0.9368
vn -0.1753 0.2157 0.9606
vn 0.2290 0.2357 0.9445
vn -0.4524 -0.1885 0.8717
vn -0.3383 0.0676 0.9386
vn 0.2748 0.0523 0.9601
vn 0.0853 -0.3084 0.9474
vn 0.2210 0.2946 0.9297
vn -0.3384 0.0864 -0.9370
vn -0.1066 -0.2533 -0.9615
vn 0.1421 -0.3197 -0.9368
vn 0.3646 -0.2917 -0.8843
vn 0.2290 0.2357 -0.9445
vn -0.1753 0.2157 -0.9606
vn -0.3383 0.0676 -0.9386
vn -0.4523 -0.1885 -0.8717
vn 0.0853 -0.3084 -0.9474
vn 0.2748 0.0523 -0.9601
vn -0.2915 -0.1566 0.9437
vn 0.3080 -0.0865 0.9474
vn 0.0110 0.3346 0.9423
vn -0.2257 -0.2256 0.9477
vn 0.2797 -0.1775 0.9435
vn -0.3768 0.0199 0.9261
vn 0.2411 -0.0849 0.9668
vn -0.3757 -0.0211 0.9265
vn 0.2928 0.0700 0.9536
vn 0.2040 0.3168 0.9263
vn -0.1948 -0.1703 0.9659
vn 0.1657 0.3357 0.9273
vn -0.0888 -0.2853 0.9543
vn 0.1735 -0.3309 0.9276
vn -0.0499 0.2494 0.9671
vn 0.2024 -0.3120 0.9283
vn -0.2030 0.2189 0.9544
vn -0.0822 0.3124 0.9464
vn -0.2915 -0.1566 -0.9437
vn 0.3080 -0.0865 -0.9474
vn 0.0110 0.3346 -0.9423
vn -0.2256 -0.2256 -0.9477
vn 0.2797 -0.1775 -0.9435
vn -0.3768 0.0199 -0.9261
vn 0.2411 -0.0849 -0.9668
vn -0.3757 -0.0211 -0.9265
vn 0.2927 0.0700 -0.9536
vn 0.2040 0.3168 -0.9263
vn -0.1948 -0.1703 -0.9659
vn 0.1657 0.3357 -0.9273
vn -0.0887 -0.2853 -0.9543
vn 0.1988 -0.3610 -0.9111
vn -0.0499 0.2494 -0.9671
vn 0.2024 -0.3120 -0.9283
vn -0.2030 0.2189 -0.9544
vn -0.0822 0.3124 -0.9464
vn -0.2256 -0.2257 0.9477
vn 0.2411 -0.0850 0.9668
vn 0.2927 0.0700 0.9536
vn -0.0887 -0.2853 0.9543
vn -0.2256 -0.2257 -0.9477
vn 0.2411 -0.0850 -0.9668
vn -0.0888 -0.2853 -0.9543
vn 0.1988 -0.3611 -0.9111
usemtl material
f 1/1/1 2/2/1 3/3/1
f 4/4/2 5/5/2 6/6/2
f 7/7/3 8/8/3 9/9/3
f 10/10/4 11/11/4 12/12/4
f 13/13/5 14/14/5 15/15/5
f 16/16/6 17/17/6 18/18/6
f 19/19/7 20/20/7 21/21/7
f 22/22/8 23/23/8 24/24/8
f 25/25/9 26/26/9 27/27/9
f 28/28/10 29/29/10 30/30/10
f 31/31/11 32/32/11 33/33/11
f 34/34/12 35/35/12 36/36/12
f 37/37/13 38/38/13 39/39/13
f 40/40/14 41/41/14 42/42/14
f 43/43/15 44/44/15 45/45/15
f 46/46/16 47/47/16 48/48/16
f 49/49/17 50/50/17 51/51/17
f 52/52/18 53/53/18 54/54/18
f 55/55/19 56/56/19 57/57/19
f 58/58/20 59/59/20 60/60/20
f 61/61/21 62/62/21 63/63/21
f 64/64/22 65/65/22 66/66/22
f 67/67/23 68/68/23 69/69/23
f 70/70/24 71/71/24 72/72/24
f 73/73/25 74/74/25 75/75/25
f 76/76/26 77/77/26 78/78/26
f 79/79/27 80/80/27 81/81/27
f 82/82/28 83/83/28 84/84/28
f 85/85/29 86/86/29 87/87/29
f 88/88/30 89/89/30 90/90/30
f 91/91/31 92/92/31 93/93/31
f 94/94/32 95/95/32 96/96/32
f 97/97/33 98/98/33 99/99/33
f 100/100/34 101/101/34 102/102/34
f 103/103/35 104/104/35 105/105/35
f 106/106/36 107/107/36 108/108/36
f 109/109/37 110/110/37 111/111/37
f 112/112/38 113/113/38 114/114/38
f 115/115/39 116/116/39 117/117/39
f 118/118/40 119/119/40 120/120/40
f 121/121/41 122/122/41 123/123/41
f 124/124/42 125/125/42 126/126/42
f 127/127/43 128/128/43 129/129/43
f 130/130/44 131/131/44 132/132/44
f 133/133/45 134/134/45 135/135/45
f 136/136/46 137/137/46 138/138/46
f 139/139/47 140/140/47 141/141/47
f 142/142/48 143/143/48 144/144/48
f 145/145/49 146/146/49 147/147/49
f 148/148/50 149/149/50 150/150/50
f 151/151/51 152/152/51 153/153/51
f 154/154/52 155/155/52 156/156/52
f 157/157/53 158/158/53 159/159/53
f 160/160/54 161/161/54 162/162/54
f 163/163/55 164/164/55 165/165/55
f 166/166/56 167/167/56 168/168/56
f 169/169/57 170/170/57 171/171/57
f 172/172/58 173/173/58 174/174/58
f 175/175/59 176/176/59 177/177/59
f 178/178/60 179/179/60 180/180/60
f 73/73/25 75/75/25 181/181/25
f 76/76/26 78/78/26 182/182/26
f 79/79/27 81/81/27 183/183/27
f 82/82/61 84/84/61 184/184/61
f 85/85/29 87/87/29 185/185/29
f 88/88/30 90/90/30 186/186/30
f 91/91/31 93/93/62 187/187/62
f 94/94/32 96/96/32 188/188/32
f 97/97/63 99/99/63 189/189/63
f 100/100/34 102/102/34 190/190/34
f 103/103/35 105/105/35 191/191/35
f 106/106/36 108/108/36 192/192/36
f 109/109/64 111/111/37 193/193/37
f 112/112/38 114/114/38 194/194/38
f 115/115/39 117/117/39 195/195/39
f 118/118/40 120/120/40 196/196/40
f 121/121/41 123/123/41 197/197/41
f 124/124/42 126/126/42 198/198/42
f 127/127/43 129/129/43 199/199/43
f 130/130/44 132/132/44 200/200/44
f 133/133/45 135/135/45 201/201/45
f 136/136/65 138/138/65 202/202/65
f 139/139/47 141/141/47 203/203/47
f 142/142/48 144/144/48 204/204/48
f 145/145/66 147/147/49 205/205/66
f 148/148/50 150/150/50 206/206/50
f 151/151/51 153/153/51 207/207/51
f 154/154/52 156/156/52 208/208/52
f 157/157/53 159/159/53 209/209/53
f 160/160/54 162/162/54 210/210/54
f 163/163/67 165/165/55 211/211/55
f 166/166/68 168/168/68 212/212/68
f 169/169/57 171/171/57 213/213/57
f 172/172/58 174/174/58 214/214/58
f 175/175/59 177/177/59 215/215/59
f 178/178/60 180/180/60 216/216/60
